<svg xmlns="http://www.w3.org/2000/svg" width="706.123" height="581.916" viewBox="0 0 706.123 581.916"><defs><style>.a{fill:#f8f8f8;}.b{fill:none;stroke:#dfdfdf;stroke-linecap:round;stroke-linejoin:round;stroke-width:5px;}.c{fill:#d37c59;}.d{fill:#707070;}.e{fill:#fdfdfa;}.f{fill:#de8e68;}.g{fill:#3c7738;}</style></defs><path class="a" d="M502.766,49.933C575.784,67.457,635.831,144.226,634.9,219.918c-.913,75.527-62.813,149.978-114.61,221.626C468.64,513.2,427.385,582.1,375.168,585.753c-52.28,3.6-115.441-58.131-167.7-99.076-52.426-40.935-93.836-61.106-129.505-97.086S12.509,301.807,19.482,255.422,70.2,168.1,115.957,145.768c45.91-22.489,93.672-26.368,160.638-49.168S429.676,32.281,502.766,49.933Z" transform="translate(-1.611 -3.987)"/><path class="b" d="M498.065,415.236,402.6,226.769c-2.912-1.7-14.6-9.209-14.6-9.209" transform="translate(-33.866 -18.989)"/><path class="b" d="M394.472,242.169c-1.141-3.77-4.564-11.537-4.564-11.537-2.09-.128-16.639-7.612-16.639-7.612" transform="translate(-32.58 -19.466)"/><line class="b" y1="18.455" x2="45.234" transform="translate(336.528 185.793)"/><path d="M11.628,539.2,0,549.943l27.911,36.6,8.634-7.639L23.256,546.337Z" transform="translate(0 -47.063)"/><path d="M258.751,502.6l-9.611,17.707L273,557.454l10.049-2.592-6.59-48.484Z" transform="translate(-21.746 -43.868)"/><ellipse class="c" cx="14.202" cy="10.597" rx="14.202" ry="10.597" transform="translate(331.572 186.587)"/><path class="d" d="M157.152,228.3C150.763,237.427,10.36,513.141,10.36,513.141l15.881,9.693L211.523,322.328Z" transform="translate(-0.904 -19.927)"/><path class="c" d="M301.583,155c3.651,3.121,14.348,15.261,17.844,17.469s43.591,27.217,51.112,29.426-8.461,8.78-8.461,8.78-52.235-11.582-56.1-14.156-26.743-20.992-26.743-25.93S301.583,155,301.583,155Z" transform="translate(-24.373 -13.529)"/><path class="e" d="M269.925,128.7c11.655-12.641,34.419,17.342,33.926,21.75s-16.593,22.9-26.8,22.9C274,173.355,261.738,137.586,269.925,128.7Z" transform="translate(-23.318 -10.964)"/><path class="d" d="M167.813,231.34c-2.738,3.651-14.6,32.858-14.6,42.9,0,68.454,102.06,86.215,116.718,86.215-2.118,9.556-24.57,118.1-23.512,120.479s19.687,7.247,23.512,6.617c14.6-7.95,61.745-118.653,58.2-134.4-4.974-22.06-83.057-86.58-94.338-93.006S167.813,231.34,167.813,231.34Z" transform="translate(-13.373 -20.192)"/><path class="e" d="M236.576,98c78.558,0,17.7,147.659,3.879,155.664-9.127,5.275-65.716-14.786-71.776-34.911C166.607,211.88,193.167,98,236.576,98Z" transform="translate(-14.713 -8.554)"/><ellipse class="f" cx="14.202" cy="10.597" rx="14.202" ry="10.597" transform="translate(319.615 191.579)"/><path class="f" d="M215.61,171.807c.192,7.448,2.683,41.629,5.777,42.66,37.421,12.486,102.224,6.982,113.414,6.234s18.364-8.625,17.807-10.5S316.858,193.986,255.76,192.3c-1.132-6.9,1.579-27.756-1.214-29.618S215.61,171.807,215.61,171.807Z" transform="translate(-18.819 -14.181)"/><path class="e" d="M225.186,104.881c32.5-6.645,38.334,54.033,35.213,58.505s-44.531,10.8-49.935,6.891S200.542,109.911,225.186,104.881Z" transform="translate(-17.999 -9.11)"/><path class="c" d="M250.168,56.66c-1.5,5.714-11.71,38.425-11.08,40.16s14.686,9.383,20.08,8.543c.21-2.492,2.5-15.836,7.192-23.858S250.168,56.66,250.168,56.66Z" transform="translate(-20.866 -4.945)"/><ellipse class="f" cx="31.669" cy="21.043" rx="31.669" ry="21.043" transform="translate(225.867 79.157) rotate(-84.232)"/><path class="g" d="M248.078,51.715c-2.391-1.314-6.928-9.054-6.928-16.246,0-11.254,11.217-17.661,18.784-20.993C265.656,11.911,270.521,0,283.555,0c10.4,0,11.09,10.469,15.872,10.87,12.395,1.031,19.35,1.5,19.35,10.505,0,6.617-8.488,24.643-25.8,24.643,0-3.341-1.123-11.637-2.975-15.626-10.4.52-18.875,13.892-33.305,13.837C253.6,44.176,248.078,51.715,248.078,51.715Z" transform="translate(-21.048)"/><ellipse class="f" cx="6.407" cy="7.822" rx="6.407" ry="7.822" transform="translate(226.071 41.675)"/><path class="b" d="M728.382,488.663h-298.2v-64.7c16.31-1.442,248.159-23.347,248.159-23.347V259.936L396.5,244l33.679,179.979" transform="translate(-34.608 -21.297)"/><circle class="b" cx="13.837" cy="13.837" r="13.837" transform="translate(405.703 475.444)"/><circle class="b" cx="13.837" cy="13.837" r="13.837" transform="translate(675.949 475.444)"/><line class="b" x2="270.831" transform="translate(372.9 281.509)"/><line class="b" x2="263.346" transform="translate(380.384 321.505)"/><line class="b" y1="9.337" x2="22.9" transform="translate(313.628 204.248)"/><path class="b" d="M438.577,342.837c-2.966-8.388-34.437-98.427-34.437-98.427" transform="translate(-35.274 -21.333)"/></svg>