<svg xmlns="http://www.w3.org/2000/svg" width="24" height="24" viewBox="0 0 24 24"><defs><style>.a{fill:#111;}</style></defs><path class="a" d="M23.9,2.839a8.273,8.273,0,0,1-2.826.95A5.993,5.993,0,0,0,23.242.443a8.912,8.912,0,0,1-3.133,1.468A4.538,4.538,0,0,0,16.52,0C13.8,0,11.6,2.71,11.6,6.057a7.119,7.119,0,0,0,.132,1.382A13.36,13.36,0,0,1,1.576,1.112,7.155,7.155,0,0,0,.909,4.157,6.508,6.508,0,0,0,3.1,9.2,4.243,4.243,0,0,1,.874,8.443v.076c0,2.937,1.694,5.377,3.949,5.938a4.033,4.033,0,0,1-1.3.216,4.484,4.484,0,0,1-.93-.108c.623,2.408,2.448,4.157,4.6,4.211a8.806,8.806,0,0,1-6.116,2.591A8.516,8.516,0,0,1-.1,21.279,12.126,12.126,0,0,0,7.447,24C16.5,24,21.452,14.769,21.452,6.769c0-.259-.009-.529-.018-.788A11.6,11.6,0,0,0,23.9,2.839Z" transform="translate(0.1)"/></svg>