<svg xmlns="http://www.w3.org/2000/svg" width="24" height="24" viewBox="0 0 24 24"><defs><style>.a{fill:#757575;}</style></defs><path class="a" d="M-20.25,48.9c-8.5,0-12.75,4.665-12.75,8.609a5.183,5.183,0,0,0,3.687,5.242.624.624,0,0,0,.875-.337,7.693,7.693,0,0,1,.375-1.106c.125-.337.063-.481-.25-.769A3.372,3.372,0,0,1-29.5,57.845c0-3.463,3.375-6.589,8.812-6.589,4.812,0,7.437,2.26,7.437,5.29-.062,3.944-2.375,7.31-5.75,7.31-1.875,0-3.25-1.2-2.812-2.645.562-1.731,1.562-3.607,1.562-4.857,0-1.106-.812-2.068-2.437-2.068a3.442,3.442,0,0,0-3.437,3.559,4.283,4.283,0,0,0,.562,2.164s-1.937,6.4-2.312,7.5a11.8,11.8,0,0,0-.062,5.242c0,.144.312.192.437.1a15.07,15.07,0,0,0,3.25-4.521C-24,67.7-23,64.53-23,64.53a5.687,5.687,0,0,0,4.375,1.731c5.75,0,9.625-4.04,9.625-9.426C-8.938,52.7-13.438,48.9-20.25,48.9Z" transform="translate(33 -48.9)"/></svg>