<svg xmlns="http://www.w3.org/2000/svg" width="24" height="24" viewBox="0 0 24 24"><defs><style>.a{fill:#757575;}</style></defs><path class="a" d="M21.331,6.673a.671.671,0,0,1-.667.667H17.327a.671.671,0,0,1-.667-.667V3.336a.671.671,0,0,1,.667-.667h3.336a.671.671,0,0,1,.667.667Zm0,13.991a.671.671,0,0,1-.667.667H3.336a.671.671,0,0,1-.667-.667V9.987H4.951a7.748,7.748,0,0,0-.28,2,7.34,7.34,0,0,0,14.68,0,6.921,6.921,0,0,0-.28-2h2.282V20.664h-.022ZM11.989,7.34a4.671,4.671,0,1,1-4.671,4.671A4.667,4.667,0,0,1,11.989,7.34ZM20.664,0H3.336A3.325,3.325,0,0,0,0,3.336V20.664A3.339,3.339,0,0,0,3.336,24H20.664A3.339,3.339,0,0,0,24,20.664V3.336A3.339,3.339,0,0,0,20.664,0Z"/></svg>