<svg xmlns="http://www.w3.org/2000/svg" xmlns:xlink="http://www.w3.org/1999/xlink" width="711" height="329.72" viewBox="0 0 711 329.72">
  <defs>
    <clipPath id="clip-illustration">
      <rect width="711" height="329.72"/>
    </clipPath>
  </defs>
  <g id="illustration" clip-path="url(#clip-illustration)">
    <rect width="711" height="329.72" fill="#fff"/>
    <g id="Group_1851" data-name="Group 1851" transform="translate(-629.5 -469)">
      <path id="Background_Shape" data-name="Background Shape" d="M.9,207.952c18.031-105.275,200.48-45.3,320.092-77.847S582.112-54.014,675.767,20.234s-5.993,253.727-220.8,294.23S-17.134,313.227.9,207.952Z" transform="translate(629.5 469)" fill="rgba(217,208,170,0.2)" opacity="0.3"/>
      <path id="Path_1280" data-name="Path 1280" d="M873.65,377.179A22.725,22.725,0,0,0,860,368.9" transform="translate(329.746 173.71)" fill="none" stroke="#000" stroke-miterlimit="10" stroke-width="1"/>
      <path id="Path_1283" data-name="Path 1283" d="M801.7,449.6" transform="translate(364.502 125.599)" fill="none" stroke="#000" stroke-miterlimit="10" stroke-width="0.95"/>
      <path id="Path_1284" data-name="Path 1284" d="M857.044,340.1c-2.625,3.231-4.442,13.165-4.483,14.3-.4.687-2.383.888-4.361.929" transform="translate(336.781 190.879)" fill="none" stroke="#000" stroke-linecap="round" stroke-miterlimit="10" stroke-width="1.075"/>
      <path id="Path_1289" data-name="Path 1289" d="M881.5,417.9c2.908,1.252,17.042-2.988,18.173-7.269,1.211-6.34-8.319-24.594-16.8-21.161" transform="translate(316.928 161.7)" fill="none" stroke="#000" stroke-linecap="round" stroke-miterlimit="10" stroke-width="1"/>
      <path id="Path_1291" data-name="Path 1291" d="M815.1,266.3c0,10.9,27.542,8.077,27.542,22.049,0,6.057-3.311,7.511-5.25,7.511" transform="translate(356.514 234.876)" fill="#191847" stroke="#000" stroke-linecap="round" stroke-miterlimit="10" stroke-width="1.075"/>
      <path id="Path_1292" data-name="Path 1292" d="M811.5,274.5c0,1.212,1.535,4.6,5.977,8.8" transform="translate(358.66 229.988)" fill="none" stroke="#000" stroke-linecap="round" stroke-miterlimit="10" stroke-width="1.075"/>
      <path id="Path_1293" data-name="Path 1293" d="M826.227,302.9c-.484,1.615-4.927,9.45-4.927,10.419s2.221,2.221,2.221,2.908-.889,4.281,3.554,7.229c-.2,1.333-.363,6.179-.363,6.179" transform="translate(352.818 213.057)" fill="none" stroke="#000" stroke-linecap="round" stroke-miterlimit="10" stroke-width="1.075"/>
      <circle id="Ellipse_398" data-name="Ellipse 398" cx="0.606" cy="0.606" r="0.606" transform="translate(1179.934 521.489)"/>
      <path id="Path_1294" data-name="Path 1294" d="M829.744,340.8a9.193,9.193,0,0,1-2.544.727" transform="translate(349.301 190.462)" fill="none" stroke="#000" stroke-linecap="round" stroke-miterlimit="10" stroke-width="1.075"/>
      <path id="Path_1295" data-name="Path 1295" d="M788.546,381.362c-5.815-2.221-19.3,12.317-19.546,17.971,1.05,2.786,6.542,6.259,10.136,8.157" transform="translate(383.996 166.417)" fill="none" stroke="#000" stroke-miterlimit="10" stroke-width="0.95"/>
      <path id="Path_1232" data-name="Path 1232" d="M.062,143.055c1.348-21.413,26.363-41.116,47.5-65.507-.379,9.172.244,16.593.664,17.345,1.678,3.044,32.7,6.43,41.292-1.487,1.344-1.239,2.562-15.8-.6-29.478a22.708,22.708,0,0,0,7.169,1.586c.057,2.263-2.851,35.285-4.656,43.582,1.157,2.094,12.978,4.105,21,4.105s19.838-2.011,20.994-4.105c-1.817-8.3-4.709-41.318-4.656-43.582,6.008-.083,14-4.774,14-4.774s-3.328-9.461-5.748-15.809a5.013,5.013,0,0,0,2.293-4.2,5.124,5.124,0,0,0-5.2-5.047,5.238,5.238,0,0,0-4.033,1.891c-3.813-1.177-8.738-2.54-9.715-3.481-1.821,1.759-5.621,2.936-7.935,2.936s-6.11-1.177-7.935-2.936c-.99.95-6,2.329-9.829,3.514a5.255,5.255,0,0,0-3.564-1.383,5.054,5.054,0,0,0-3.631,1.443A5.2,5.2,0,0,0,85.905,41.3a4.939,4.939,0,0,0,.754,2.61c-.253.413-.627,1.045-1.092,1.883a24.469,24.469,0,0,0-2.9-1.54,3.83,3.83,0,0,0,.322-1.355c0-2.478-1.515-7.756-2.595-11.766C90.268,16.436,99.857,4.543,111.792,1.1c21.846-6.327,51.415,15.561,71.2,43.049a136.494,136.494,0,0,1,20.88,42.388c-2.929-.892-5.7-1.8-6.416-2.478-1.817,1.759-5.621,2.932-7.935,2.932s-6.11-1.173-7.935-2.932c-1.568,1.507-13.308,4.105-14.3,5.278s-8.1,21.372-8.1,21.372,8,4.7,14.029,4.782c.053,2.263-2.851,35.281-4.656,43.577.9,1.623,8.192,3.2,15.165,3.824-11.467,10.824-26.07,19.761-41.321,26.947-17.838,8.392-36.575,14.4-55.211,15.412v-2.032H79.929v2.168a88.462,88.462,0,0,1-25.3-4.043C25.753,192.225-1.47,166.6.062,143.055Z" transform="matrix(1, 0.017, -0.017, 1, 700.225, 531.158)" fill="rgba(245,245,245,0.7)"/>
      <path id="Path_1233" data-name="Path 1233" d="M8.949,2.932C6,1.144,2.755-.112,0,.008" transform="matrix(1, 0.017, -0.017, 1, 776.205, 575.341)" fill="none" stroke="#000" stroke-linecap="round" stroke-linejoin="round" stroke-width="1"/>
      <path id="Path_1234" data-name="Path 1234" d="M1.32,1.653C-3.222,6.2,5.169,24.082,8.234,24.421c2.065.227,14.483-9.647,14.5-12.389C22.737,7.637,7.379-4.36,1.32,1.653Z" transform="matrix(1, 0.017, -0.017, 1, 746.596, 577.772)" fill="none" stroke="#000" stroke-linecap="round" stroke-linejoin="round" stroke-width="1"/>
      <path id="Path_1235" data-name="Path 1235" d="M35.9,0a.917.917,0,0,1,.112.318c.194,1.433-5.476,26.889-13,35.429-1.008,1.144-6.063,1.272-7.335,1.078C14.578,36.656,3.523,26.959,0,23.4" transform="matrix(1, 0.017, -0.017, 1, 756.76, 578.145)" fill="none" stroke="#000" stroke-linecap="round" stroke-linejoin="round" stroke-width="1"/>
      <path id="Path_1236" data-name="Path 1236" d="M0,16.057c1.342,1.35,5.034,6.29,5.782,7.186.826-1.4,10.5-20.12,12.5-23.242" transform="matrix(1, 0.017, -0.017, 1, 768.031, 576.21)" fill="none" stroke="#000" stroke-linecap="round" stroke-linejoin="round" stroke-width="1"/>
      <path id="Path_1237" data-name="Path 1237" d="M7.078,9.8a5.071,5.071,0,0,0,3.444-4.745A5.265,5.265,0,0,0,0,5.057,4.906,4.906,0,0,0,.756,7.671" transform="matrix(1, 0.017, -0.017, 1, 785.525, 568.843)" fill="none" stroke="#000" stroke-linecap="round" stroke-linejoin="round" stroke-width="1"/>
      <ellipse id="Ellipse_390" data-name="Ellipse 390" cx="5.261" cy="5.055" rx="5.261" ry="5.055" transform="matrix(1, 0.017, -0.017, 1, 828.613, 569.094)" fill="none" stroke="#000" stroke-linecap="round" stroke-linejoin="round" stroke-width="1"/>
      <path id="Path_1238" data-name="Path 1238" d="M12.782,9.7C9.738,4.972,5.592,1.367,0,0" transform="matrix(1, 0.017, -0.017, 1, 770.229, 572.573)" fill="none" stroke="#000" stroke-linecap="round" stroke-linejoin="round" stroke-width="1"/>
      <path id="Path_1239" data-name="Path 1239" d="M2.012,0C-1.052,15.078.124,32.778.773,33.98c1.7,3.04,33.154,6.43,41.864-1.487,1.379-1.239,2.635-16.172-.731-30" transform="matrix(1, 0.017, -0.017, 1, 746.393, 592.995)" fill="none" stroke="#000" stroke-linecap="round" stroke-linejoin="round" stroke-width="1"/>
      <path id="Path_1240" data-name="Path 1240" d="M7.306,0A14.064,14.064,0,0,0,0,5.889" transform="matrix(1, 0.017, -0.017, 1, 754.414, 572.23)" fill="none" stroke="#000" stroke-linecap="round" stroke-linejoin="round" stroke-width="1"/>
      <path id="Path_1241" data-name="Path 1241" d="M5.03,0C3.457.95,1.582,2.028,0,2.891" transform="matrix(1, 0.017, -0.017, 1, 789.785, 605.094)" fill="none" stroke="#000" stroke-linecap="round" stroke-linejoin="round" stroke-width="1"/>
      <path id="Path_1243" data-name="Path 1243" d="M0,3.581C3.907,2.383,9.156.966,10.176,0c1.842,1.763,5.7,2.936,8.045,2.936S24.415,1.763,26.265,0c.991.942,5.98,2.3,9.845,3.481" transform="matrix(1, 0.017, -0.017, 1, 794.086, 566.715)" fill="none" stroke="#000" stroke-linecap="round" stroke-linejoin="round" stroke-width="1"/>
      <path id="Path_1244" data-name="Path 1244" d="M30.755,79.114c-8.127,0-20.112-2.011-21.285-4.109,1.842-8.3,4.774-41.3,4.72-43.577C8.1,31.341,0,26.649,0,26.649S7.186,6.451,8.21,5.278,21.12,1.507,22.71,0c1.846,1.759,5.7,2.932,8.045,2.932S36.949,1.759,38.8,0c1.594,1.507,13.5,4.105,14.5,5.278S61.513,26.65,61.513,26.65s-8.1,4.691-14.19,4.778c-.058,2.263,2.891,35.281,4.72,43.578C50.871,77.1,38.886,79.114,30.755,79.114Z" transform="matrix(1, 0.017, -0.017, 1, 857.314, 617.974)" fill="#c1dee2"/>
      <path id="Path_1245" data-name="Path 1245" d="M.025,0C.025.31,0,.628,0,.942c0,8.7,5.645,15.743,12.6,15.743,4.572,0,8.569-3.035,10.779-7.578" transform="matrix(1, 0.017, -0.017, 1, 756.51, 551.652)" fill="none" stroke="#000" stroke-linecap="round" stroke-linejoin="round" stroke-width="1.02"/>
      <path id="Path_1246" data-name="Path 1246" d="M0,10.932A18.65,18.65,0,0,0,1.825,2.767,19.615,19.615,0,0,0,1.631,0" transform="matrix(1, 0.017, -0.017, 1, 779.744, 550.232)" fill="none" stroke="#000" stroke-linecap="round" stroke-linejoin="round" stroke-width="1.02"/>
      <path id="Path_1247" data-name="Path 1247" d="M6.348,1.591a3.444,3.444,0,1,0-1.293,4.9" transform="matrix(1, 0.017, -0.017, 1, 757.809, 552.021)" fill="none" stroke="#000" stroke-linecap="round" stroke-linejoin="round" stroke-width="1.02"/>
      <path id="Path_1248" data-name="Path 1248" d="M2.862,15.59a3.916,3.916,0,0,0,.38-1.5C3.242,11.088,1,3.994,0,0" transform="matrix(1, 0.017, -0.017, 1, 779.527, 561.166)" fill="none" stroke="#000" stroke-linecap="round" stroke-linejoin="round" stroke-width="1.02"/>
      <path id="Path_1249" data-name="Path 1249" d="M19.865,0C13,0,7.454,7.343,7.454,15.652c0,1.962.541,6.3.24,9.032C7.108,30.028,0,38.093,0,44.147a10.52,10.52,0,0,0,.376,2.858" transform="matrix(1, 0.017, -0.017, 1, 747.516, 533.635)" fill="none" stroke="#000" stroke-linecap="round" stroke-linejoin="round" stroke-width="1.02"/>
      <path id="Path_1250" data-name="Path 1250" d="M2.321,1.272A5.368,5.368,0,0,1,0,0" transform="matrix(1, 0.017, -0.017, 1, 756.607, 551.654)" fill="none" stroke="#000" stroke-linecap="round" stroke-linejoin="round" stroke-width="1.02"/>
      <path id="Path_1251" data-name="Path 1251" d="M5.389,0A11.923,11.923,0,0,1,0,2.891" transform="matrix(1, 0.017, -0.017, 1, 763.719, 550.299)" fill="none" stroke="#000" stroke-linecap="round" stroke-linejoin="round" stroke-width="1.02"/>
      <path id="Path_1252" data-name="Path 1252" d="M0,0C7.235,0,16.168,6.376,15.1,16.168c-3.068-.161-5.654-3.04-8.148-6.542a22.081,22.081,0,0,1-2.375,4.06" transform="matrix(1, 0.017, -0.017, 1, 767.168, 533.979)" fill="none" stroke="#000" stroke-linecap="round" stroke-linejoin="round" stroke-width="1.02"/>
      <path id="Path_1253" data-name="Path 1253" d="M22.44,18.091H.726A.731.731,0,0,1,.263,16.8L20.5.167a.723.723,0,0,1,.925,0L28.135,5.7" transform="matrix(1, 0.017, -0.017, 1, 839.295, 616.687)" fill="none" stroke="#000" stroke-linecap="round" stroke-linejoin="round" stroke-width="1"/>
      <path id="Path_1254" data-name="Path 1254" d="M6.339,3.057A3.172,3.172,0,0,0,0,3.057" transform="matrix(1, 0.017, -0.017, 1, 860.367, 607.721)" fill="none" stroke="#000" stroke-linecap="round" stroke-linejoin="round" stroke-width="1"/>
      <line id="Line_429" data-name="Line 429" y1="6.286" transform="matrix(1, 0.017, -0.017, 1, 860.363, 610.787)" fill="none" stroke="#000" stroke-linecap="round" stroke-linejoin="round" stroke-width="1"/>
      <path id="Path_1255" data-name="Path 1255" d="M0,3.108,3.581.167a.723.723,0,0,1,.925,0L8.115,3.128" transform="matrix(1, 0.017, -0.017, 1, 884.566, 617.494)" fill="none" stroke="#000" stroke-linecap="round" stroke-linejoin="round" stroke-width="1"/>
      <path id="Path_1256" data-name="Path 1256" d="M6.339,3.057A3.172,3.172,0,0,0,0,3.057" transform="matrix(1, 0.017, -0.017, 1, 888.244, 608.208)" fill="none" stroke="#000" stroke-linecap="round" stroke-linejoin="round" stroke-width="1"/>
      <line id="Line_430" data-name="Line 430" y1="6.286" transform="matrix(1, 0.017, -0.017, 1, 888.189, 611.272)" fill="none" stroke="#000" stroke-linecap="round" stroke-linejoin="round" stroke-width="1"/>
      <path id="Path_1257" data-name="Path 1257" d="M0,4.59,5.369.167a.723.723,0,0,1,.925,0L26.53,16.8a.727.727,0,0,1-.463,1.293H1.516" transform="matrix(1, 0.017, -0.017, 1, 829.598, 616.534)" fill="none" stroke="#000" stroke-linecap="round" stroke-linejoin="round" stroke-width="1"/>
      <path id="Path_1258" data-name="Path 1258" d="M6.339,3.057A3.172,3.172,0,0,0,0,3.057" transform="matrix(1, 0.017, -0.017, 1, 835.676, 607.29)" fill="none" stroke="#000" stroke-linecap="round" stroke-linejoin="round" stroke-width="1"/>
      <line id="Line_431" data-name="Line 431" y1="6.286" transform="matrix(1, 0.017, -0.017, 1, 835.664, 610.355)" fill="none" stroke="#000" stroke-linecap="round" stroke-linejoin="round" stroke-width="1"/>
      <path id="Path_1259" data-name="Path 1259" d="M21.441.174,41.7,16.805a.731.731,0,0,1-.467,1.293H.726a.731.731,0,0,1-.463-1.293L20.5.174A.723.723,0,0,1,21.441.174Z" transform="matrix(1, 0.017, -0.017, 1, 711.631, 614.468)" fill="none" stroke="#000" stroke-linecap="round" stroke-linejoin="round" stroke-width="1"/>
      <path id="Path_1260" data-name="Path 1260" d="M6.339,3.057A3.172,3.172,0,0,0,0,3.057" transform="matrix(1, 0.017, -0.017, 1, 732.176, 605.483)" fill="none" stroke="#000" stroke-linecap="round" stroke-linejoin="round" stroke-width="1"/>
      <line id="Line_432" data-name="Line 432" y1="6.286" transform="matrix(1, 0.017, -0.017, 1, 732.137, 608.549)" fill="none" stroke="#000" stroke-linecap="round" stroke-linejoin="round" stroke-width="1"/>
      <path id="Path_1261" data-name="Path 1261" d="M0,13.732H22.507L7.368,5.93,7.326,0H0Z" transform="matrix(1, 0.017, -0.017, 1, 776.537, 735.747)" fill="none" stroke="#000" stroke-linecap="round" stroke-linejoin="round" stroke-width="1"/>
      <path id="Path_1262" data-name="Path 1262" d="M16.147,13.732H0L3.651,0h8.582Z" transform="matrix(1, 0.017, -0.017, 1, 743.639, 735.173)" fill="none" stroke="#000" stroke-linecap="round" stroke-linejoin="round" stroke-width="1"/>
      <path id="Path_1263" data-name="Path 1263" d="M0,0A56.071,56.071,0,0,1,.458,12.187c.863,1.193,8.388,1.388,9.585.19a36.908,36.908,0,0,1-.826-9.2" transform="matrix(1, 0.017, -0.017, 1, 761.176, 565.128)" fill="none" stroke="#000" stroke-linecap="round" stroke-linejoin="round" stroke-width="1"/>
      <path id="Path_1264" data-name="Path 1264" d="M49.975,0H0V133.169" transform="matrix(1, 0.017, -0.017, 1, 697.297, 606.354)" fill="none" stroke="#000" stroke-linecap="round" stroke-linejoin="round" stroke-width="1"/>
      <line id="Line_433" data-name="Line 433" x1="4.939" transform="matrix(1, 0.017, -0.017, 1, 789.576, 607.965)" fill="none" stroke="#000" stroke-linecap="round" stroke-linejoin="round" stroke-width="1"/>
      <path id="Path_1265" data-name="Path 1265" d="M94.085,133.169V0H0" transform="matrix(1, 0.017, -0.017, 1, 827.52, 608.627)" fill="none" stroke="#000" stroke-linecap="round" stroke-linejoin="round" stroke-width="1"/>
      <path id="Path_1266" data-name="Path 1266" d="M0,5.067V0H30.5V5.067" transform="matrix(1, 0.017, -0.017, 1, 904.094, 743.153)" fill="none" stroke="#000" stroke-linecap="round" stroke-linejoin="round" stroke-width="1"/>
      <path id="Path_1267" data-name="Path 1267" d="M0,5.067V0H30.5V5.067" transform="matrix(1, 0.017, -0.017, 1, 679.725, 739.237)" fill="none" stroke="#000" stroke-linecap="round" stroke-linejoin="round" stroke-width="1"/>
      <circle id="Ellipse_391" data-name="Ellipse 391" cx="3.51" cy="3.51" r="3.51" transform="matrix(1, 0.017, -0.017, 1, 930.986, 748.918)" stroke-width="1" stroke="#000" stroke-linecap="round" stroke-linejoin="round" fill="none"/>
      <circle id="Ellipse_392" data-name="Ellipse 392" cx="3.51" cy="3.51" r="3.51" transform="matrix(1, 0.017, -0.017, 1, 900.492, 748.386)" stroke-width="1" stroke="#000" stroke-linecap="round" stroke-linejoin="round" fill="none"/>
      <circle id="Ellipse_393" data-name="Ellipse 393" cx="3.51" cy="3.51" r="3.51" transform="matrix(1, 0.017, -0.017, 1, 706.621, 745.001)" stroke-width="1" stroke="#000" stroke-linecap="round" stroke-linejoin="round" fill="none"/>
      <circle id="Ellipse_394" data-name="Ellipse 394" cx="3.51" cy="3.51" r="3.51" transform="matrix(1, 0.017, -0.017, 1, 676.123, 744.469)" stroke-width="1" stroke="#000" stroke-linecap="round" stroke-linejoin="round" fill="none"/>
      <path id="Path_1268" data-name="Path 1268" d="M31.134,1.45,10.486,107.5H0V0C4.824,1.974,20.224,3.589,31.134,1.45Z" transform="matrix(1, 0.017, -0.017, 1, 748.004, 627.945)" fill="#2b44ff"/>
      <path id="Path_1269" data-name="Path 1269" d="M21.384,0l.306.074V108.865h-9.5L.012,56.578S-.814,15.644,11.072,3.213C15.177,2.639,18.844,1.615,21.384,0Z" transform="matrix(1, 0.017, -0.017, 1, 765.545, 626.884)" fill="#2b44ff"/>
      <rect id="Rectangle_1590" data-name="Rectangle 1590" width="199.791" height="87.221" transform="translate(933.41 539)" fill="#f5f5f5"/>
      <path id="Path_1275" data-name="Path 1275" d="M764.461,392.044c0,2.706-2.463,31.54-8.561,34.043,4.6-2.463,11.671-6.179,14.013-9.127.162-1.858.808-9.571,1.131-10.661s1.615-10.1,3.231-13.529a33.868,33.868,0,0,0,1.979-4.806l1.131-2.181,1.252-2.019,1.252-1.858.444-.646-.565-.121-1.131-.04-1.454.323-1.858.888-2.221,1.333-1.575,1.131-1.494,1.252-1.575,1.535-1.615,1.777-2.261,2.625" transform="translate(391.807 166.437)" fill="#fff"/>
      <path id="Path_1276" data-name="Path 1276" d="M853.919,460.921c0,1.09-7.067,36.062-18.819,36.062,13.286,1.211,19.869-.525,19.869-.525l2.342-2.1.808-2.342s.646-6.542.646-7.148c.04-.929.162-3.069.162-3.069l.2-4.038.525-10.1-2.1-3.392L856.14,460.8Z" transform="translate(344.59 118.922)" fill="#fff"/>
      <path id="Path_1281" data-name="Path 1281" d="M891.6,503.3c.808-3.433,1.09-13.327,1.777-25.4" transform="translate(310.906 108.728)" fill="none" stroke="#000" stroke-miterlimit="10" stroke-width="1"/>
      <path id="Path_1282" data-name="Path 1282" d="M808.391,369.1c-22.857,9.531-17.809,66.431-16.234,70.429,2.665,6.784,35.659,1.938,38.607.121" transform="translate(371.139 173.59)" fill="none" stroke="#000" stroke-miterlimit="10" stroke-width="1"/>
      <path id="Path_1285" data-name="Path 1285" d="M692.368,422.667a119.53,119.53,0,0,0-11.63,12.519c-1.858-.888-21.2-11.065-22.655-11.711s-4.523-5.775-5.573-5.775c-.606,0-1.171,1.171-1.171,1.979a4.443,4.443,0,0,0,1.05,2.867c-1.373-.2-13.488-1.131-13.488-.323,0,2.1,13.569,4.886,14.619,5.452s23.14,21,30.813,21c2.988,0,16.073-8.965,16.073-9.934" transform="translate(461.559 144.617)" fill="none" stroke="#000" stroke-linecap="round" stroke-linejoin="round" stroke-miterlimit="10" stroke-width="1"/>
      <path id="Path_1286" data-name="Path 1286" d="M860.342,877.4v6.7H843.3l10.863-6.7" transform="translate(339.701 -129.44)" fill="none" stroke="#000" stroke-linecap="round" stroke-linejoin="round" stroke-miterlimit="10" stroke-width="1"/>
      <line id="Line_434" data-name="Line 434" y1="9.369" transform="translate(1200.043 738.59)" fill="none" stroke="#000" stroke-linecap="round" stroke-linejoin="round" stroke-miterlimit="10" stroke-width="1"/>
      <line id="Line_435" data-name="Line 435" y1="9.369" transform="translate(1193.945 738.59)" fill="none" stroke="#000" stroke-linecap="round" stroke-linejoin="round" stroke-miterlimit="10" stroke-width="1"/>
      <path id="Path_1287" data-name="Path 1287" d="M679.4,779.4v6.7h-17l10.823-6.7" transform="translate(447.549 -71.017)" fill="none" stroke="#000" stroke-linecap="round" stroke-linejoin="round" stroke-miterlimit="10" stroke-width="1"/>
      <line id="Line_436" data-name="Line 436" y1="9.369" transform="translate(1126.949 701.438)" fill="none" stroke="#000" stroke-linecap="round" stroke-linejoin="round" stroke-miterlimit="10" stroke-width="1"/>
      <line id="Line_437" data-name="Line 437" y1="7.713" transform="translate(1120.893 700.67)" fill="none" stroke="#000" stroke-linecap="round" stroke-linejoin="round" stroke-miterlimit="10" stroke-width="1"/>
      <rect id="Rectangle_1597" data-name="Rectangle 1597" width="73.538" height="43.049" transform="translate(1083.91 715.5)" stroke-width="1" stroke="#111" stroke-linecap="round" stroke-linejoin="round" stroke-miterlimit="10" fill="none"/>
      <path id="Path_1288" data-name="Path 1288" d="M879.829,450.948c.364,2.221,8.844,15.588,9.854,16.759-2.14,1.858-14.053,27.9-14.982,29.6,0,.969,2.908,4.159,3.958,5.209,1.777,0,21.767-25.724,21.767-28.632s.323-21.888-5.048-30.086" transform="translate(320.982 129.057)" fill="none" stroke="#000" stroke-linecap="round" stroke-miterlimit="10" stroke-width="1"/>
      <path id="Path_1290" data-name="Path 1290" d="M768.028,562.055c-1.05-1.05-3.958-4.24-3.958-5.209.444-.767,3.19-6.744,6.26-13.084-7.592,2.06-26.491,3.594-33.4,2.019a18.2,18.2,0,0,1-5.21-2.181c-1.817,1.171-28.551,19.869-40.908,38.2-.646,1.454-1.615,49.389-1.615,49.389l9.813.848,8.763-40.828c1.413,0,20.515-7.309,34.2-16.032l16.234,93.932h10.54l2.3-109.762C769.523,560.965,768.392,562.055,768.028,562.055Z" transform="translate(431.57 69.56)" fill="#ff9b21"/>
      <text id="Let_s_give_you_a_helping_hand_and_seamless_shopping_experience" data-name="Let&apos;s give you a 
helping hand and 
seamless shopping experience" transform="translate(1033.41 569)" fill="#707070" font-size="14" font-family="SegoeUI, Segoe UI"><tspan x="-49.42" y="0">Let&apos;s give you a </tspan><tspan x="-56.215" y="19">helping hand and </tspan><tspan x="-93.69" y="38">seamless shopping experience</tspan></text>
      <text id="FIT_ASSISTANT" data-name="FIT 
ASSISTANT" transform="translate(1120.41 733)" fill="#111" font-size="10" font-family="SegoeUI-Bold, Segoe UI" font-weight="700"><tspan x="-8.494" y="0">FIT </tspan><tspan x="-26.484" y="14">ASSISTANT</tspan></text>
    </g>
  </g>
</svg>
