<svg xmlns="http://www.w3.org/2000/svg" width="100" height="82.9" viewBox="0 0 100 82.9"><defs><style>.a{fill:#707070;}</style></defs><path class="a" d="M77.9,82.9H5.6A5.268,5.268,0,0,1,0,77.7V21.9c0-3.5,2.1-6.1,5.6-6.1H50V26.9H11v45H72V54.8H84V77.7c0,2.8-2.8,5.2-6.1,5.2Z"/><path class="a" d="M16.5,66.9,39.8,44.6l10.4,9.8L61.5,39.6,67,50.2V66.9Z"/><path class="a" d="M28,44.4a5.7,5.7,0,0,1-5.7-5.7,5.75,5.75,0,1,1,11.5,0A5.72,5.72,0,0,1,28,44.4Z"/><path class="a" d="M84,21.9V44H72V21.9H56.1L78.1,0,100,21.9Z"/></svg>